<?xml version="1.0" encoding="UTF-8"?>
<svg id="Layer_1" data-name="Layer 1" xmlns="http://www.w3.org/2000/svg" xmlns:xlink="http://www.w3.org/1999/xlink" viewBox="0 0 166.28 135.63">
  <defs>
    <style>
      .cls-1, .cls-2, .cls-3, .cls-4, .cls-5, .cls-6, .cls-7, .cls-8, .cls-9, .cls-10, .cls-11, .cls-12 {
        fill: none;
      }

      .cls-2 {
        stroke: #8b9fc8;
        stroke-width: 1.07px;
      }

      .cls-2, .cls-13, .cls-4, .cls-5, .cls-6, .cls-7, .cls-8, .cls-14, .cls-15, .cls-9, .cls-11, .cls-12, .cls-16 {
        stroke-miterlimit: 10;
      }

      .cls-17, .cls-18, .cls-19, .cls-20 {
        fill: #010101;
      }

      .cls-13 {
        stroke-width: .12px;
      }

      .cls-13, .cls-14, .cls-15 {
        fill: #d5eef3;
        stroke: #abc4e6;
      }

      .cls-21 {
        fill: #fff;
      }

      .cls-21, .cls-22, .cls-23, .cls-24 {
        fill-rule: evenodd;
      }

      .cls-22 {
        fill: #fbd9da;
      }

      .cls-3 {
        stroke-miterlimit: 8;
      }

      .cls-3, .cls-10 {
        stroke: #333;
        stroke-width: .05px;
      }

      .cls-4 {
        stroke: #6fbd44;
      }

      .cls-4, .cls-5, .cls-7, .cls-8, .cls-9, .cls-11, .cls-12 {
        stroke-width: .5px;
      }

      .cls-5 {
        stroke-dasharray: 1.71 1.71;
      }

      .cls-5, .cls-7, .cls-9, .cls-11 {
        stroke: #000;
      }

      .cls-6, .cls-14 {
        stroke-width: .25px;
      }

      .cls-6, .cls-16 {
        stroke: #231f20;
      }

      .cls-7 {
        stroke-dasharray: 1.88 1.88;
      }

      .cls-25 {
        clip-path: url(#clippath-1);
      }

      .cls-26 {
        clip-path: url(#clippath-3);
      }

      .cls-27 {
        clip-path: url(#clippath-4);
      }

      .cls-28 {
        clip-path: url(#clippath-2);
      }

      .cls-29 {
        clip-path: url(#clippath-5);
      }

      .cls-23 {
        fill: #d86198;
      }

      .cls-8 {
        stroke: #007de9;
      }

      .cls-18 {
        font-family: Arial-BoldMT, Arial;
        font-weight: 700;
      }

      .cls-18, .cls-20 {
        font-size: 5px;
      }

      .cls-15 {
        stroke-width: .16px;
      }

      .cls-9 {
        stroke-dasharray: 1.81 1.81;
      }

      .cls-10 {
        stroke-linecap: round;
        stroke-linejoin: round;
      }

      .cls-24 {
        fill: #f6a4ac;
      }

      .cls-30 {
        fill: #d0d2d3;
      }

      .cls-19 {
        font-size: 4px;
      }

      .cls-19, .cls-20 {
        font-family: ArialMT, Arial;
      }

      .cls-31 {
        clip-path: url(#clippath);
      }

      .cls-12 {
        stroke: #010101;
      }

      .cls-16 {
        fill: #dad2e8;
        opacity: .2;
        stroke-width: 1.17px;
      }
    </style>
    <clipPath id="clippath">
      <rect class="cls-1" x="104.08" y="12.08" width="15.35" height="14.16"/>
    </clipPath>
    <clipPath id="clippath-1">
      <rect class="cls-1" x="104.08" y="12.08" width="15.35" height="14.16"/>
    </clipPath>
    <clipPath id="clippath-2">
      <rect class="cls-1" x="104.08" y="12.08" width="15.35" height="14.16"/>
    </clipPath>
    <clipPath id="clippath-3">
      <rect class="cls-1" x="122.97" y="18.87" width="15.35" height="14.16"/>
    </clipPath>
    <clipPath id="clippath-4">
      <rect class="cls-1" x="122.97" y="18.87" width="15.35" height="14.16"/>
    </clipPath>
    <clipPath id="clippath-5">
      <rect class="cls-1" x="122.97" y="18.87" width="15.35" height="14.16"/>
    </clipPath>
  </defs>
  <path class="cls-2" d="M144.14,43.84H16.18c-3.92,0-7.12-7.83-7.12-17.41v-1.43c0-9.57,3.21-17.4,7.12-17.4h127.96c3.92,0,7.12,7.83,7.12,17.4v1.43c0,9.57-3.21,17.41-7.12,17.41Z"/>
  <g>
    <line class="cls-12" x1="80.16" y1="43.84" x2="80.16" y2="59.69"/>
    <polygon class="cls-17" points="80.16 61.45 79.15 58.96 80.16 59.55 81.18 58.96 80.16 61.45"/>
  </g>
  <text class="cls-19" transform="translate(86.41 50.76)"><tspan x="0" y="0">reference genome</tspan></text>
  <text class="cls-18" transform="translate(155.48 76.4) rotate(90)"><tspan x="0" y="0">Exitron detection</tspan></text>
  <g>
    <g>
      <path class="cls-4" d="M60.88,20.37h23.76c3.01,0,3.49-2.92,3.49-2.92"/>
      <line class="cls-4" x1="62.1" y1="20.37" x2="62.1" y2="18.91"/>
      <line class="cls-4" x1="63.9" y1="20.37" x2="63.9" y2="18.91"/>
      <line class="cls-4" x1="65.69" y1="20.37" x2="65.69" y2="18.91"/>
      <line class="cls-4" x1="67.48" y1="20.37" x2="67.48" y2="18.91"/>
      <line class="cls-4" x1="69.28" y1="20.37" x2="69.28" y2="18.91"/>
      <line class="cls-4" x1="71.07" y1="20.37" x2="71.07" y2="18.91"/>
      <line class="cls-4" x1="72.86" y1="20.37" x2="72.86" y2="18.91"/>
      <line class="cls-4" x1="74.66" y1="20.37" x2="74.66" y2="18.91"/>
      <line class="cls-4" x1="76.45" y1="20.37" x2="76.45" y2="18.91"/>
      <line class="cls-4" x1="78.24" y1="20.37" x2="78.24" y2="18.91"/>
      <line class="cls-4" x1="80.04" y1="20.37" x2="80.04" y2="18.91"/>
      <line class="cls-4" x1="81.83" y1="20.37" x2="81.83" y2="18.91"/>
      <line class="cls-4" x1="83.62" y1="20.37" x2="83.62" y2="18.91"/>
    </g>
    <text class="cls-20" transform="translate(62.05 38.97)"><tspan x="0" y="0">Long-read</tspan></text>
    <g>
      <path class="cls-4" d="M63.9,24.93h23.76c3.01,0,3.49-2.92,3.49-2.92"/>
      <line class="cls-4" x1="65.12" y1="24.93" x2="65.12" y2="23.47"/>
      <line class="cls-4" x1="66.92" y1="24.93" x2="66.92" y2="23.47"/>
      <line class="cls-4" x1="68.71" y1="24.93" x2="68.71" y2="23.47"/>
      <line class="cls-4" x1="70.5" y1="24.93" x2="70.5" y2="23.47"/>
      <line class="cls-4" x1="72.3" y1="24.93" x2="72.3" y2="23.47"/>
      <line class="cls-4" x1="74.09" y1="24.93" x2="74.09" y2="23.47"/>
      <line class="cls-4" x1="75.88" y1="24.93" x2="75.88" y2="23.47"/>
      <line class="cls-4" x1="77.68" y1="24.93" x2="77.68" y2="23.47"/>
      <line class="cls-4" x1="79.47" y1="24.93" x2="79.47" y2="23.47"/>
      <line class="cls-4" x1="81.26" y1="24.93" x2="81.26" y2="23.47"/>
      <line class="cls-4" x1="83.06" y1="24.93" x2="83.06" y2="23.47"/>
      <line class="cls-4" x1="84.85" y1="24.93" x2="84.85" y2="23.47"/>
      <line class="cls-4" x1="86.64" y1="24.93" x2="86.64" y2="23.47"/>
    </g>
    <g>
      <path class="cls-4" d="M60.47,29.49h23.76c3.01,0,3.49-2.92,3.49-2.92"/>
      <line class="cls-4" x1="61.69" y1="29.49" x2="61.69" y2="28.03"/>
      <line class="cls-4" x1="63.49" y1="29.49" x2="63.49" y2="28.03"/>
      <line class="cls-4" x1="65.28" y1="29.49" x2="65.28" y2="28.03"/>
      <line class="cls-4" x1="67.07" y1="29.49" x2="67.07" y2="28.03"/>
      <line class="cls-4" x1="68.87" y1="29.49" x2="68.87" y2="28.03"/>
      <line class="cls-4" x1="70.66" y1="29.49" x2="70.66" y2="28.03"/>
      <line class="cls-4" x1="72.45" y1="29.49" x2="72.45" y2="28.03"/>
      <line class="cls-4" x1="74.25" y1="29.49" x2="74.25" y2="28.03"/>
      <line class="cls-4" x1="76.04" y1="29.49" x2="76.04" y2="28.03"/>
      <line class="cls-4" x1="77.83" y1="29.49" x2="77.83" y2="28.03"/>
      <line class="cls-4" x1="79.63" y1="29.49" x2="79.63" y2="28.03"/>
      <line class="cls-4" x1="81.42" y1="29.49" x2="81.42" y2="28.03"/>
      <line class="cls-4" x1="83.21" y1="29.49" x2="83.21" y2="28.03"/>
    </g>
  </g>
  <g>
    <text class="cls-20" transform="translate(20.32 39.32)"><tspan x="0" y="0">Short-read</tspan></text>
    <g>
      <line class="cls-4" x1="23.33" y1="20.82" x2="35.76" y2="20.82"/>
      <line class="cls-4" x1="24.12" y1="20.82" x2="24.12" y2="19.37"/>
      <line class="cls-4" x1="25.92" y1="20.82" x2="25.92" y2="19.37"/>
      <line class="cls-4" x1="27.72" y1="20.82" x2="27.72" y2="19.37"/>
      <line class="cls-4" x1="29.52" y1="20.82" x2="29.52" y2="19.37"/>
      <line class="cls-4" x1="31.32" y1="20.82" x2="31.32" y2="19.37"/>
      <line class="cls-4" x1="33.12" y1="20.82" x2="33.12" y2="19.37"/>
      <line class="cls-4" x1="34.92" y1="20.82" x2="34.92" y2="19.37"/>
    </g>
    <g>
      <line class="cls-4" x1="20.68" y1="23.86" x2="33.12" y2="23.86"/>
      <line class="cls-4" x1="21.47" y1="23.86" x2="21.47" y2="22.4"/>
      <line class="cls-4" x1="23.27" y1="23.86" x2="23.27" y2="22.4"/>
      <line class="cls-4" x1="25.07" y1="23.86" x2="25.07" y2="22.4"/>
      <line class="cls-4" x1="26.87" y1="23.86" x2="26.87" y2="22.4"/>
      <line class="cls-4" x1="28.67" y1="23.86" x2="28.67" y2="22.4"/>
      <line class="cls-4" x1="30.47" y1="23.86" x2="30.47" y2="22.4"/>
      <line class="cls-4" x1="32.27" y1="23.86" x2="32.27" y2="22.4"/>
    </g>
    <g>
      <line class="cls-4" x1="25.1" y1="26.9" x2="37.53" y2="26.9"/>
      <line class="cls-4" x1="25.89" y1="26.9" x2="25.89" y2="25.44"/>
      <line class="cls-4" x1="27.69" y1="26.9" x2="27.69" y2="25.44"/>
      <line class="cls-4" x1="29.49" y1="26.9" x2="29.49" y2="25.44"/>
      <line class="cls-4" x1="31.29" y1="26.9" x2="31.29" y2="25.44"/>
      <line class="cls-4" x1="33.09" y1="26.9" x2="33.09" y2="25.44"/>
      <line class="cls-4" x1="34.89" y1="26.9" x2="34.89" y2="25.44"/>
      <line class="cls-4" x1="36.68" y1="26.9" x2="36.68" y2="25.44"/>
    </g>
    <g>
      <line class="cls-4" x1="19.73" y1="29.94" x2="32.16" y2="29.94"/>
      <line class="cls-4" x1="20.52" y1="29.94" x2="20.52" y2="28.48"/>
      <line class="cls-4" x1="22.32" y1="29.94" x2="22.32" y2="28.48"/>
      <line class="cls-4" x1="24.12" y1="29.94" x2="24.12" y2="28.48"/>
      <line class="cls-4" x1="25.92" y1="29.94" x2="25.92" y2="28.48"/>
      <line class="cls-4" x1="27.72" y1="29.94" x2="27.72" y2="28.48"/>
      <line class="cls-4" x1="29.52" y1="29.94" x2="29.52" y2="28.48"/>
      <line class="cls-4" x1="31.32" y1="29.94" x2="31.32" y2="28.48"/>
    </g>
    <g>
      <line class="cls-4" x1="25.95" y1="32.98" x2="38.38" y2="32.98"/>
      <line class="cls-4" x1="26.74" y1="32.98" x2="26.74" y2="31.52"/>
      <line class="cls-4" x1="28.54" y1="32.98" x2="28.54" y2="31.52"/>
      <line class="cls-4" x1="30.34" y1="32.98" x2="30.34" y2="31.52"/>
      <line class="cls-4" x1="32.13" y1="32.98" x2="32.13" y2="31.52"/>
      <line class="cls-4" x1="33.93" y1="32.98" x2="33.93" y2="31.52"/>
      <line class="cls-4" x1="35.73" y1="32.98" x2="35.73" y2="31.52"/>
      <line class="cls-4" x1="37.53" y1="32.98" x2="37.53" y2="31.52"/>
    </g>
  </g>
  <g>
    <text class="cls-20" transform="translate(108.95 39.72)"><tspan x="0" y="0">Single-cell</tspan></text>
    <g>
      <g class="cls-31">
        <path class="cls-23" d="M111.88,12.14c2.87,0,6.82.17,7.18,2.53.52,3.31.29,7.57-.07,9.38-.33,1.78-4.44,2.11-7.11,2.11s-7.03-.33-7.37-2.11c-.36-1.81-.6-6.07-.07-9.38.36-2.37,4.59-2.53,7.44-2.53Z"/>
      </g>
      <path class="cls-22" d="M104.69,24c-.33-1.78-.55-6.01-.05-9.29.36-2.34,5.37-2.34,7.25-2.34,2,0,6.65,0,7.01,2.34.47,3.28.26,7.51-.07,9.29-.24,1.22-2.83,1.95-6.94,1.95s-6.96-.75-7.2-1.95Z"/>
      <path class="cls-21" d="M119.01,20.19c.02.95.02,3.45-.5,4.15-.52.7-2.35,1.22-3.06,1.22.5-.03,2.4-.64,2.85-1.53.29-.61.69-2.78.64-3.76l.07-.09Z"/>
      <path class="cls-24" d="M118.89,14.71c-.36-2.34-5.01-2.34-7.01-2.34-1.88,0-6.89,0-7.25,2.34-.5,3.28-.29,7.51.05,9.29.24,1.2,2.99,1.95,7.2,1.95s6.7-.72,6.94-1.95c.33-1.78.55-6.01.07-9.29h0ZM111.88,25.73c-4.59,0-6.85-.89-7.01-1.78-.33-1.78-.55-5.95-.07-9.21.33-2.14,5.42-2.14,7.08-2.14,1.78,0,6.49,0,6.82,2.14.47,3.25.26,7.43-.07,9.21-.17.83-2.02,1.78-6.75,1.78Z"/>
      <path class="cls-21" d="M104.82,21.22c-.05-1.61-.19-6.01.71-7.01.9-1,4.18-1.28,5.84-1.34-1.23.06-4.7.61-5.61,2.28-.9,1.67-.86,5.17-.95,6.06Z"/>
      <g class="cls-25">
        <path class="cls-10" d="M111.88,12.14c2.87,0,6.82.17,7.18,2.53.52,3.31.29,7.57-.07,9.38-.33,1.78-4.44,2.11-7.11,2.11s-7.03-.33-7.37-2.11c-.36-1.81-.6-6.07-.07-9.38.36-2.37,4.59-2.53,7.44-2.53"/>
      </g>
      <g class="cls-28">
        <path class="cls-3" d="M104.68,24c-.33-1.78-.55-6.01-.05-9.29.36-2.34,5.37-2.34,7.25-2.34,2,0,6.65,0,7.01,2.34.47,3.28.26,7.51-.07,9.29-.24,1.22-2.83,1.95-6.94,1.95s-6.96-.75-7.2-1.95"/>
      </g>
    </g>
    <g>
      <g class="cls-26">
        <path class="cls-23" d="M130.77,18.93c2.87,0,6.82.17,7.18,2.53.52,3.31.29,7.57-.07,9.38-.33,1.78-4.44,2.11-7.11,2.11s-7.03-.33-7.37-2.11c-.36-1.81-.6-6.07-.07-9.38.36-2.37,4.59-2.53,7.44-2.53Z"/>
      </g>
      <path class="cls-22" d="M123.56,30.79c-.33-1.78-.55-6.01-.05-9.29.36-2.34,5.37-2.34,7.25-2.34,2,0,6.65,0,7.01,2.34.47,3.28.26,7.51-.07,9.29-.24,1.22-2.83,1.95-6.94,1.95s-6.96-.75-7.2-1.95Z"/>
      <path class="cls-21" d="M137.89,26.97c.02.95.02,3.45-.5,4.15-.52.7-2.35,1.22-3.06,1.22.5-.03,2.4-.64,2.85-1.53.29-.61.69-2.78.64-3.76l.07-.09Z"/>
      <path class="cls-24" d="M137.78,21.5c-.36-2.34-5.01-2.34-7.01-2.34-1.88,0-6.89,0-7.25,2.34-.5,3.28-.29,7.51.05,9.29.24,1.2,2.99,1.95,7.2,1.95s6.7-.72,6.94-1.95c.33-1.78.55-6.01.07-9.29h0ZM130.77,32.51c-4.59,0-6.85-.89-7.01-1.78-.33-1.78-.55-5.95-.07-9.21.33-2.14,5.42-2.14,7.08-2.14,1.78,0,6.49,0,6.82,2.14.47,3.25.26,7.43-.07,9.21-.17.83-2.02,1.78-6.75,1.78Z"/>
      <path class="cls-21" d="M123.71,28.01c-.05-1.61-.19-6.01.71-7.01.9-1,4.18-1.28,5.84-1.34-1.23.06-4.7.61-5.61,2.28-.9,1.67-.86,5.17-.95,6.06Z"/>
      <g class="cls-27">
        <path class="cls-10" d="M130.77,18.93c2.87,0,6.82.17,7.18,2.53.52,3.31.29,7.57-.07,9.38-.33,1.78-4.44,2.11-7.11,2.11s-7.03-.33-7.37-2.11c-.36-1.81-.6-6.07-.07-9.38.36-2.37,4.59-2.53,7.44-2.53"/>
      </g>
      <g class="cls-29">
        <path class="cls-3" d="M123.56,30.79c-.33-1.78-.55-6.01-.05-9.29.36-2.34,5.37-2.34,7.25-2.34,2,0,6.65,0,7.01,2.34.47,3.28.26,7.51-.07,9.29-.24,1.22-2.83,1.95-6.94,1.95s-6.96-.75-7.2-1.95"/>
      </g>
    </g>
    <g>
      <line class="cls-4" x1="106.61" y1="22.97" x2="116.91" y2="16.01"/>
      <line class="cls-4" x1="107.26" y1="22.53" x2="106.44" y2="21.32"/>
      <line class="cls-4" x1="108.75" y1="21.52" x2="107.93" y2="20.32"/>
      <line class="cls-4" x1="110.24" y1="20.52" x2="109.42" y2="19.31"/>
      <line class="cls-4" x1="111.73" y1="19.51" x2="110.92" y2="18.3"/>
      <line class="cls-4" x1="113.22" y1="18.5" x2="112.41" y2="17.29"/>
      <line class="cls-4" x1="114.71" y1="17.49" x2="113.9" y2="16.28"/>
      <line class="cls-4" x1="116.2" y1="16.48" x2="115.39" y2="15.27"/>
    </g>
    <g>
      <line class="cls-4" x1="128.1" y1="20.95" x2="133.44" y2="32.18"/>
      <line class="cls-4" x1="128.44" y1="21.66" x2="129.76" y2="21.03"/>
      <line class="cls-4" x1="129.21" y1="23.28" x2="130.53" y2="22.66"/>
      <line class="cls-4" x1="129.99" y1="24.91" x2="131.3" y2="24.28"/>
      <line class="cls-4" x1="130.76" y1="26.54" x2="132.08" y2="25.91"/>
      <line class="cls-4" x1="131.53" y1="28.16" x2="132.85" y2="27.53"/>
      <line class="cls-4" x1="132.3" y1="29.79" x2="133.62" y2="29.16"/>
      <line class="cls-4" x1="133.08" y1="31.41" x2="134.39" y2="30.78"/>
    </g>
  </g>
  <text class="cls-19" transform="translate(86.41 58.35)"><tspan x="0" y="0">reference transcriptome</tspan></text>
  <g>
    <rect class="cls-16" x="10.9" y="63.49" width="139.87" height="66.66"/>
    <text class="cls-20" transform="translate(21.69 105.25)"><tspan x="0" y="0">Full-length transcript</tspan></text>
    <rect class="cls-15" x="16.62" y="82.86" width="10.14" height="5.15"/>
    <rect class="cls-15" x="65.11" y="82.86" width="10.14" height="5.15"/>
    <rect class="cls-14" x="34.21" y="82.86" width="23.47" height="5.15"/>
    <g>
      <line class="cls-11" x1="26.56" y1="85.44" x2="27.56" y2="85.44"/>
      <line class="cls-7" x1="29.44" y1="85.44" x2="32.26" y2="85.44"/>
      <line class="cls-11" x1="33.21" y1="85.44" x2="34.21" y2="85.44"/>
    </g>
    <g>
      <line class="cls-11" x1="57.7" y1="85.44" x2="58.7" y2="85.44"/>
      <line class="cls-9" x1="60.5" y1="85.44" x2="63.21" y2="85.44"/>
      <line class="cls-11" x1="64.11" y1="85.44" x2="65.11" y2="85.44"/>
    </g>
    <polyline class="cls-6" points="34.21 88.17 30.48 93.28 26.76 88.17"/>
    <rect class="cls-15" x="85.5" y="82.86" width="10.14" height="5.15"/>
    <rect class="cls-15" x="133.99" y="82.86" width="10.14" height="5.15"/>
    <rect class="cls-13" x="103.08" y="82.86" width="5.66" height="5.15"/>
    <rect class="cls-13" x="120.9" y="82.86" width="5.66" height="5.15"/>
    <g>
      <line class="cls-11" x1="95.44" y1="85.44" x2="96.44" y2="85.44"/>
      <line class="cls-7" x1="98.32" y1="85.44" x2="101.14" y2="85.44"/>
      <line class="cls-11" x1="102.08" y1="85.44" x2="103.08" y2="85.44"/>
    </g>
    <g>
      <line class="cls-11" x1="126.58" y1="85.44" x2="127.58" y2="85.44"/>
      <line class="cls-9" x1="129.38" y1="85.44" x2="132.09" y2="85.44"/>
      <line class="cls-11" x1="132.99" y1="85.44" x2="133.99" y2="85.44"/>
    </g>
    <line class="cls-8" x1="108.74" y1="85.44" x2="120.78" y2="85.44"/>
    <polyline class="cls-6" points="120.89 87.97 115.01 93.48 108.74 87.97"/>
    <rect class="cls-30" x="33.4" y="71.02" width="10.14" height="1.77"/>
    <rect class="cls-30" x="44.42" y="71.02" width="10.14" height="1.77"/>
    <rect class="cls-30" x="45.69" y="73.71" width="10.14" height="1.77"/>
    <rect class="cls-30" x="46.33" y="76.4" width="10.14" height="1.77"/>
    <rect class="cls-30" x="34.28" y="73.71" width="10.14" height="1.77"/>
    <rect class="cls-30" x="35.28" y="76.4" width="10.14" height="1.77"/>
    <rect class="cls-30" x="106.13" y="69.25" width="2.61" height="1.77"/>
    <line class="cls-8" x1="108.74" y1="70.13" x2="120.78" y2="70.13"/>
    <rect class="cls-30" x="120.78" y="69.25" width="4.59" height="1.77"/>
    <rect class="cls-30" x="106.81" y="71.52" width="1.95" height="1.77"/>
    <line class="cls-8" x1="108.76" y1="72.4" x2="120.79" y2="72.4"/>
    <rect class="cls-30" x="120.79" y="71.52" width="5.58" height="1.77"/>
    <rect class="cls-30" x="103.4" y="73.79" width="5.36" height="1.77"/>
    <line class="cls-8" x1="108.76" y1="74.67" x2="120.79" y2="74.67"/>
    <rect class="cls-30" x="120.79" y="73.79" width="1.77" height="1.77"/>
    <rect class="cls-30" x="105.16" y="76.06" width="3.58" height="1.77"/>
    <line class="cls-8" x1="108.74" y1="76.95" x2="120.78" y2="76.95"/>
    <rect class="cls-30" x="120.78" y="76.06" width="3.97" height="1.77"/>
    <text class="cls-20" transform="translate(87.96 105.25)"><tspan x="0" y="0">Exitron-spliced transcript</tspan></text>
    <polyline class="cls-6" points="65.14 88.02 61.42 93.13 57.7 88.02"/>
    <polyline class="cls-6" points="102.98 88.02 99.26 93.48 95.54 88.02"/>
    <polyline class="cls-6" points="134.01 88.02 130.28 93.48 126.56 88.02"/>
    <g>
      <rect class="cls-15" x="21.63" y="119.02" width="10.14" height="5.15"/>
      <text class="cls-20" transform="translate(33.94 122.94)"><tspan x="0" y="0">Conventional exon</tspan></text>
      <g>
        <text class="cls-20" transform="translate(96.26 119.51)"><tspan x="0" y="0">Conventional intron</tspan></text>
        <g>
          <line class="cls-11" x1="83.56" y1="118.2" x2="84.56" y2="118.2"/>
          <line class="cls-5" x1="86.26" y1="118.2" x2="92.23" y2="118.2"/>
          <line class="cls-11" x1="93.09" y1="118.2" x2="94.09" y2="118.2"/>
        </g>
      </g>
      <line class="cls-8" x1="83.39" y1="125.04" x2="93.92" y2="125.04"/>
      <text class="cls-20" transform="translate(96.09 126.91)"><tspan x="0" y="0">Exitron</tspan></text>
    </g>
    <text class="cls-19" transform="translate(36.88 86.78)"><tspan x="0" y="0">GU</tspan></text>
    <text class="cls-19" transform="translate(49.55 86.78)"><tspan x="0" y="0">AG</tspan></text>
  </g>
  <text class="cls-18" transform="translate(16.35 14.09)"><tspan x="0" y="0">RNA sequencing</tspan></text>
</svg>